<svg width="1920" height="1649" viewBox="0 0 1920 1649" fill="none" xmlns="http://www.w3.org/2000/svg">
<path d="M1318.68 281.282L1308.63 298.942L1302.8 297.837L1312.85 280.177L1318.68 281.282ZM1209.52 260.816L1202.99 279.017L1196.98 278.297L1203.51 260.096L1209.52 260.816ZM1097.07 247.576L1094.14 266.086L1088.02 265.763L1090.96 247.253L1097.07 247.576ZM982.749 241.75L983.438 260.334L977.302 260.41L976.613 241.826L982.749 241.75ZM868.018 243.385L872.35 261.804L866.268 262.281L861.936 243.862L868.018 243.385ZM754.348 252.517L762.279 270.532L756.331 271.405L748.4 253.39L754.348 252.517ZM643.215 269.053L654.676 286.423L648.94 287.685L637.48 270.314L643.215 269.053ZM536.107 292.845L550.964 309.336L545.519 310.971L530.662 294.481L536.107 292.845ZM434.473 323.618L452.53 339.007L447.449 340.994L429.392 325.605L434.473 323.618ZM339.675 360.961L360.674 375.051L356.021 377.362L335.023 363.272L339.675 360.961ZM252.928 404.341L276.56 416.965L272.391 419.566L248.76 406.942L252.928 404.341ZM175.266 453.125L201.242 464.106L197.616 466.965L171.64 455.984L175.266 453.125ZM107.779 506.715L135.776 515.892L132.746 518.973L104.748 509.796L107.779 506.715ZM51.4538 564.443L81.1014 571.69L78.7085 574.953L49.061 567.707L51.4538 564.443ZM7.06516 625.544L37.9595 630.774L36.2325 634.175L5.33821 628.945L7.06516 625.544ZM-24.8617 689.188L6.8637 692.351L5.81921 695.843L-25.9062 692.68L-24.8617 689.188ZM-44.0195 754.518L-11.8772 755.581L-12.2282 759.119L-44.3705 758.056L-44.0195 754.518ZM-50.2089 820.682L-18.0636 819.65L-17.7227 823.188L-49.868 824.22L-50.2089 820.682ZM-43.4604 886.828L-11.7225 883.707L-10.692 887.201L-42.43 890.321L-43.4604 886.828ZM-23.8229 952.112L7.10546 946.949L8.81014 950.354L-22.1182 955.516L-23.8229 952.112ZM8.41283 1015.7L38.1321 1008.56L40.4924 1011.83L10.7731 1018.98L8.41283 1015.7ZM52.8941 1076.79L81.0216 1067.74L84.0078 1070.84L55.8803 1079.88L52.8941 1076.79ZM109.059 1134.57L135.243 1123.75L138.814 1126.63L112.631 1137.45L109.059 1134.57ZM176.141 1188.33L200.072 1175.9L204.178 1178.53L180.247 1190.97L176.141 1188.33ZM253.187 1237.44L274.593 1223.56L279.177 1225.92L257.771 1239.8L253.187 1237.44ZM339.158 1281.34L357.75 1266.16L362.761 1268.21L344.169 1283.39L339.158 1281.34ZM433.072 1319.43L448.575 1303.13L453.954 1304.84L438.452 1321.13L433.072 1319.43ZM533.837 1351.14L546.054 1333.94L551.733 1335.29L539.516 1352.49L533.837 1351.14ZM640.162 1376.08L648.934 1358.2L654.839 1359.16L646.067 1377.05L640.162 1376.08ZM750.688 1393.93L755.907 1375.59L761.964 1376.16L756.744 1394.5L750.688 1393.93ZM863.996 1404.46L865.608 1385.89L871.738 1386.07L870.126 1404.63L863.996 1404.46ZM978.635 1407.56L976.615 1389.01L982.74 1388.79L984.761 1407.34L978.635 1407.56ZM1093.15 1403.18L1087.5 1384.88L1093.55 1384.26L1099.19 1402.56L1093.15 1403.18ZM1206.07 1391.35L1196.83 1373.54L1202.71 1372.53L1211.95 1390.33L1206.07 1391.35ZM1315.89 1372.12L1303.17 1355.05L1308.81 1353.65L1321.53 1370.72L1315.89 1372.12ZM1421.16 1345.73L1405.11 1329.62L1410.43 1327.86L1426.48 1343.97L1421.16 1345.73ZM1520.45 1312.51L1501.29 1297.57L1506.22 1295.46L1525.38 1310.4L1520.45 1312.51ZM1612.45 1272.9L1590.45 1259.33L1594.93 1256.91L1616.93 1270.48L1612.45 1272.9ZM1695.99 1227.47L1671.47 1215.43L1675.45 1212.73L1699.97 1224.77L1695.99 1227.47ZM1770.06 1176.86L1743.31 1166.52L1746.72 1163.57L1773.47 1173.91L1770.06 1176.86ZM1833.57 1121.67L1804.93 1113.19L1807.73 1110.04L1836.37 1118.52L1833.57 1121.67ZM1885.6 1062.61L1855.44 1056.09L1857.6 1052.77L1887.75 1059.29L1885.6 1062.61ZM1925.48 1000.48L1894.23 996.002L1895.71 992.562L1926.95 997.043L1925.48 1000.48ZM1952.77 936.124L1920.84 933.73L1921.63 930.216L1953.56 932.61L1952.77 936.124ZM1967.18 870.388L1934.99 870.089L1935.09 866.546L1967.28 866.845L1967.18 870.388ZM1968.66 804.133L1936.61 805.893L1936.03 802.365L1968.08 800.605L1968.66 804.133ZM1957.86 740.769L1926.33 744.521L1925.09 741.05L1956.62 737.298L1957.86 740.769ZM1935.25 678.452L1904.61 684.155L1902.72 680.782L1933.36 675.079L1935.25 678.452ZM1901.07 617.917L1871.68 625.507L1869.18 622.272L1898.57 614.682L1901.07 617.917ZM1855.71 559.883L1827.93 569.272L1824.83 566.214L1852.61 556.825L1855.71 559.883ZM1799.7 505.039L1773.84 516.11L1770.18 513.264L1796.04 502.193L1799.7 505.039ZM1733.73 454.018L1710.06 466.62L1705.9 464.015L1729.57 451.413L1733.73 454.018ZM1658.7 407.352L1637.49 421.336L1632.87 419.002L1654.08 405.018L1658.7 407.352ZM1575.5 365.562L1557.01 380.777L1551.98 378.742L1570.48 363.526L1575.5 365.562ZM1485.02 329.162L1469.49 345.445L1464.11 343.736L1479.64 327.453L1485.02 329.162ZM1388.31 298.553L1374.53 315.352L1368.98 313.835L1382.76 297.036L1388.31 298.553Z" fill="#B6BED4"/>
</svg>
