<svg width="658" height="644" viewBox="0 0 658 644" fill="none" xmlns="http://www.w3.org/2000/svg">
<path d="M52.1076 500.651L89.3008 457.088L97.3319 463.945L60.1386 507.507L52.1076 500.651ZM205.735 628.323L210.924 571.278L221.441 572.235L216.252 629.279L205.735 628.323ZM404.891 643.771L376.181 594.206L385.318 588.913L414.029 638.478L404.891 643.771ZM576.368 541.374L524.321 517.457L528.73 507.861L580.778 531.779L576.368 541.374ZM657.335 358.818L601.03 369.34L599.09 358.96L655.395 348.438L657.335 358.818ZM618.731 162.406L571.553 194.891L565.564 186.193L612.742 153.709L618.731 162.406ZM576.901 103.413L537.879 145.345L530.149 138.151L569.171 96.2189L576.901 103.413ZM523.285 54.8803L494.287 104.278L485.18 98.9323L514.178 49.5344L523.285 54.8803ZM460.226 20.0306L453.793 76.9482L443.3 75.7622L449.733 18.8446L460.226 20.0306ZM261.462 0.238614L289.077 50.4224L279.825 55.5134L252.21 5.32965L261.462 0.238614ZM87.7766 98.8439L139.291 123.89L134.673 133.387L83.1592 108.341L87.7766 98.8439ZM1.46356 279.616L58.1909 287.554L56.7275 298.012L0.000175337 290.074L1.46356 279.616ZM1.83949 276.93L58.5668 284.868L57.1034 295.326L0.376104 287.388L1.83949 276.93ZM1.83949 276.93L58.5668 284.868L57.1034 295.326L0.376104 287.388L1.83949 276.93ZM1.83949 276.93L58.5668 284.868L57.1034 295.326L0.376104 287.388L1.83949 276.93Z" fill="white" fill-opacity="0.26"/>
</svg>
