<svg width="40" height="40" viewBox="0 0 40 40" fill="none" xmlns="http://www.w3.org/2000/svg">
<path d="M35.3335 13.9999C36.1668 14.6333 36.6668 15.6166 36.6668 16.6666V33.3333C36.6668 34.2173 36.3156 35.0652 35.6905 35.6903C35.0654 36.3154 34.2176 36.6666 33.3335 36.6666H6.66683C5.78277 36.6666 4.93493 36.3154 4.30981 35.6903C3.68469 35.0652 3.3335 34.2173 3.3335 33.3333V16.6666C3.3335 16.1491 3.45398 15.6387 3.68541 15.1759C3.91683 14.713 4.25284 14.3104 4.66683 13.9999L18.0002 3.99992C18.5771 3.56718 19.2789 3.33325 20.0002 3.33325C20.7214 3.33325 21.4232 3.56718 22.0002 3.99992L35.3335 13.9999Z" stroke="black" stroke-width="2" stroke-linecap="round" stroke-linejoin="round"/>
<path d="M36.6668 16.6665L21.7168 26.1665C21.2023 26.4889 20.6074 26.6599 20.0002 26.6599C19.393 26.6599 18.798 26.4889 18.2835 26.1665L3.3335 16.6665" stroke="black" stroke-width="2" stroke-linecap="round" stroke-linejoin="round"/>
</svg>
