<svg width="40" height="40" viewBox="0 0 40 40" fill="none" xmlns="http://www.w3.org/2000/svg">
<path d="M23.0535 27.6133C23.3977 27.7713 23.7855 27.8074 24.153 27.7157C24.5205 27.6239 24.8457 27.4096 25.0752 27.1083L25.6668 26.3333C25.9773 25.9193 26.3799 25.5833 26.8428 25.3518C27.3056 25.1204 27.816 24.9999 28.3335 24.9999H33.3335C34.2176 24.9999 35.0654 25.3511 35.6905 25.9762C36.3156 26.6014 36.6668 27.4492 36.6668 28.3333V33.3333C36.6668 34.2173 36.3156 35.0652 35.6905 35.6903C35.0654 36.3154 34.2176 36.6666 33.3335 36.6666C25.377 36.6666 17.7464 33.5059 12.1203 27.8798C6.4942 22.2537 3.3335 14.6231 3.3335 6.66659C3.3335 5.78253 3.68469 4.93468 4.30981 4.30956C4.93493 3.68444 5.78277 3.33325 6.66683 3.33325H11.6668C12.5509 3.33325 13.3987 3.68444 14.0239 4.30956C14.649 4.93468 15.0002 5.78253 15.0002 6.66659V11.6666C15.0002 12.1841 14.8797 12.6944 14.6483 13.1573C14.4168 13.6201 14.0808 14.0228 13.6668 14.3333L12.8868 14.9183C12.5809 15.1519 12.3652 15.4842 12.2765 15.8588C12.1878 16.2334 12.2315 16.6272 12.4002 16.9733C14.678 21.5997 18.4242 25.3412 23.0535 27.6133Z" stroke="black" stroke-width="2" stroke-linecap="round" stroke-linejoin="round"/>
</svg>
