<svg width="100" height="101" viewBox="0 0 100 101" fill="none" xmlns="http://www.w3.org/2000/svg">
<path fill-rule="evenodd" clip-rule="evenodd" d="M46.5375 0.284174C47.0946 -0.0555012 47.7721 -0.0865357 48.3471 0.168939L48.4604 0.223627L48.4721 0.229486L72.4291 13.1641C72.4359 13.1671 72.4429 13.1697 72.4496 13.1728L72.5668 13.2324L72.6762 13.2969C73.2097 13.6356 73.5601 14.2196 73.5766 14.8789L74.3442 41.6572L97.3539 54.0791C97.3773 54.0907 97.4012 54.1016 97.4243 54.1143C98.0195 54.4403 98.4166 55.0589 98.434 55.7617L99.2182 83.1123V83.1201C99.2324 83.8029 98.8904 84.4559 98.2914 84.8213L98.2905 84.8203L75.0014 99.1699L74.9858 99.1797C74.6933 99.3525 74.3509 99.4589 73.9868 99.459L73.9848 99.458L73.9819 99.459C73.6786 99.4589 73.359 99.389 73.059 99.2256V99.2266L50.0776 86.8193L27.8286 100.528L27.8129 100.538C27.5554 100.69 27.2594 100.791 26.9438 100.812C26.8968 100.816 26.849 100.818 26.8012 100.818C26.4979 100.818 26.1782 100.748 25.8784 100.585V100.586L1.80023 87.5859L1.79437 87.584C1.19768 87.2571 0.799325 86.6353 0.784605 85.9287L0.785582 85.9277L0.00140227 58.5889C0.00130743 58.5853 0.000500788 58.5817 0.000425705 58.5781C-0.0137614 57.8971 0.327308 57.245 0.92523 56.8789H0.924254L23.0873 43.2246L22.3159 16.3437V16.3359C22.3018 15.6547 22.6431 15.0034 23.2397 14.6377L46.5336 0.286127L46.5375 0.284174ZM4.63129 84.7002L24.7651 95.5664L24.1098 72.7031L3.97504 61.833L4.63129 84.7002ZM28.0043 72.5869L28.6596 95.458L47.937 83.5771L47.2807 60.707L28.0043 72.5869ZM52.0161 83.458L71.9457 94.2129L71.2905 71.3447L58.9125 64.6621L51.3598 60.5869L52.0161 83.458ZM75.1772 71.2422L75.8325 94.1074L95.311 82.1084L94.6557 59.2373L75.1772 71.2422ZM5.81586 58.4121L25.9565 69.2812L45.435 57.2764L25.3002 46.4101L5.81586 58.4121ZM52.9985 57.0596L63.3266 62.6348L73.1371 67.9297L92.6157 55.9248L72.4809 45.0596L52.9985 57.0596ZM26.9467 42.459L47.0805 53.3242L46.4252 30.4609L26.2905 19.5918L26.9467 42.459ZM50.312 30.3467L50.9682 53.2168L70.4467 41.2197L69.7914 18.3477L50.312 30.3467ZM28.1371 16.1738L48.2709 27.04L67.7495 15.042L47.6157 4.17578L28.1371 16.1738Z" fill="#F26E35"/>
</svg>
