<svg width="102" height="102" viewBox="0 0 102 102" fill="none" xmlns="http://www.w3.org/2000/svg">
<path d="M51 0C79.1191 6.62289e-05 102 22.8809 102 51C102 79.119 79.1257 102 51 102C22.8744 102 0 79.1257 0 51C1.2415e-05 22.8743 22.881 0 51 0ZM21.2031 14.6982C10.7122 23.3234 4.00879 36.3968 4.00879 51.0068C4.00894 76.9187 25.0878 97.9912 51 97.9912C76.9119 97.9911 97.9842 76.9124 97.9844 51.0068C97.9844 36.4217 91.3025 23.3649 80.8398 14.7383C86.916 21.7001 90.6016 30.7997 90.6016 40.7461C90.6012 62.5831 72.8409 80.3436 51.0039 80.3438C29.1668 80.3438 11.4066 62.5831 11.4062 40.7461C11.4062 30.7806 15.1061 21.6652 21.2031 14.6982ZM72.7988 12.6387C76.4034 17.2964 78.5517 23.1353 78.5518 29.4668C78.5515 44.6568 66.192 57.0166 51.002 57.0166C35.812 57.0164 23.4534 44.6567 23.4531 29.4668C23.4532 23.1393 25.5988 17.3038 29.1992 12.6475C20.8211 19.1644 15.4219 29.3392 15.4219 40.7529C15.4224 60.3765 31.387 76.3408 51.0039 76.3408C70.6209 76.3407 86.5913 60.3762 86.5918 40.7529C86.5918 29.334 81.1854 19.1552 72.7988 12.6387ZM36.834 10.6816C31.1455 14.9833 27.4621 21.8043 27.4619 29.4668C27.4622 42.4432 38.0256 53.0076 51.002 53.0078C63.9785 53.0078 74.5417 42.4433 74.542 29.4668C74.5419 21.8082 70.8621 14.9905 65.1787 10.6885C66.3666 12.9264 67.041 15.477 67.041 18.1826C67.0409 27.0257 59.8479 34.2186 51.0049 34.2188C42.1618 34.2188 34.9689 27.0257 34.9688 18.1826C34.9688 15.4743 35.6439 12.9211 36.834 10.6816ZM51.0049 6.16211C44.3752 6.16211 38.9844 11.5529 38.9844 18.1826C38.9845 24.8119 44.3815 30.2021 51.0049 30.2021C57.6279 30.202 63.0243 24.8056 63.0244 18.1826C63.0244 11.5592 57.6341 6.16224 51.0049 6.16211Z" fill="#F26E35"/>
</svg>
