<svg width="113" height="99" viewBox="0 0 113 99" fill="none" xmlns="http://www.w3.org/2000/svg">
<path d="M49.9463 0.0078125C52.0006 0.0078125 54.0339 0.130439 56.0303 0.369141C31.3138 3.31312 12.1671 24.0081 12.167 49.1006C12.167 74.1932 31.3137 94.888 56.0303 97.832C54.0339 98.0707 52.0078 98.1934 49.9463 98.1934C22.3583 98.1931 0 76.2112 0 49.1006C0.000130035 21.9901 22.3583 0.00806988 49.9463 0.0078125ZM62.1143 0C89.6952 0 112.061 21.9821 112.062 49.0928C112.062 76.2035 89.6953 98.1855 62.1143 98.1855C60.06 98.1855 58.0276 98.0629 56.0312 97.8242C80.7478 94.873 99.8945 74.1782 99.8945 49.0928C99.8944 24.0075 80.7478 3.30531 56.0312 0.361328C58.0276 0.122638 60.0528 9.19614e-06 62.1143 0ZM56.0322 21.0059C56.7773 47.7766 57.3778 48.3628 84.6113 49.1006C57.3779 49.8312 56.7773 50.4241 56.0322 77.1943C55.2872 50.424 54.6868 49.8384 27.4531 49.1006C54.6869 48.37 55.2872 47.7766 56.0322 21.0059Z" fill="#F26E35"/>
</svg>
