<svg width="121" height="160" viewBox="0 0 121 160" fill="none" xmlns="http://www.w3.org/2000/svg">
<path d="M0 162.244V0H70.4558C80.6605 0 89.5624 1.79125 97.1074 5.31947C104.707 8.90197 110.569 13.8958 114.748 20.4094C118.928 26.8687 120.991 34.5223 120.991 43.3699V46.1382C120.991 55.8544 118.657 63.7793 114.043 69.8044C109.429 75.8295 103.675 80.2262 96.8902 82.9945V87.1741C103.078 87.4998 107.855 89.6167 111.275 93.5249C114.694 97.4874 116.377 102.698 116.377 109.158V162.244H85.8171V113.554C85.8171 109.863 84.84 106.824 82.9402 104.49C80.9862 102.155 77.7836 101.016 73.3326 101.016H30.6683V162.189H0.108501L0 162.244ZM30.5597 73.2784H67.1989C74.4725 73.2784 80.1176 71.3243 84.2429 67.3618C88.3139 63.3994 90.3766 58.1884 90.3766 51.7291V49.3951C90.3766 42.8814 88.3682 37.6705 84.3515 33.7623C80.3348 29.8542 74.6353 27.8458 67.1989 27.8458H30.5597V73.2784Z" fill="#D55322" fill-opacity="0.1"/>
</svg>
