<svg width="102" height="163" viewBox="0 0 102 163" fill="none" xmlns="http://www.w3.org/2000/svg">
<path d="M39.7251 168.649C27.2406 168.649 16.1674 166.423 6.55982 161.918C-2.99351 157.467 -10.5385 151.008 -15.9122 142.703C-21.3402 134.344 -24 124.302 -24 112.577V106.064H6.12557V112.577C6.12557 122.293 9.16526 129.621 15.1904 134.452C21.2155 139.337 29.4118 141.78 39.7251 141.78C50.0383 141.78 58.0718 139.717 63.2284 135.538C68.385 131.358 70.9905 126.039 70.9905 119.525C70.9905 115.074 69.7421 111.437 67.1909 108.615C64.6397 105.846 60.9486 103.567 56.0634 101.775C51.1782 99.9842 45.3159 98.3558 38.3138 96.7817L32.9943 95.6418C21.8668 93.1992 12.3135 90.0509 4.3886 86.2513C-3.5906 82.4517 -9.67 77.4579 -13.9039 71.3243C-18.1377 65.1363 -20.3089 57.1028 -20.3089 47.2238C-20.3089 37.3448 -17.9749 28.8771 -13.2525 21.8749C-8.5301 14.8185 -1.90792 9.44476 6.66836 5.64515C15.2446 1.84553 25.3408 0 36.9025 0C48.4642 0 58.8317 1.95409 67.8423 5.91655C76.9071 9.87901 83.9635 15.7413 89.1744 23.5576C94.331 31.374 96.9365 41.1444 96.9365 52.869V59.8168H66.8109V52.869C66.8109 46.681 65.6167 41.6872 63.2284 37.9419C60.8401 34.1423 57.4204 31.374 52.9152 29.5827C48.4099 27.7915 43.0904 26.923 36.9025 26.923C27.6205 26.923 20.7812 28.66 16.3845 32.1339C11.9878 35.6079 9.76234 40.3845 9.76234 46.4096C9.76234 50.4264 10.7937 53.846 12.9106 56.6143C15.0275 59.3826 18.1215 61.7167 22.3011 63.5622C26.4807 65.4077 31.8001 67.0361 38.3138 68.4474L43.6333 69.5873C55.2492 72.0842 65.2911 75.2324 73.8674 79.0863C82.4437 82.9402 89.1201 88.0426 93.8968 94.3934C98.6734 100.744 101.062 108.832 101.062 118.711C101.062 128.59 98.5649 137.275 93.5168 144.765C88.4687 152.256 81.4123 158.118 72.1847 162.407C63.0113 166.64 52.1552 168.757 39.6165 168.757L39.7251 168.649Z" fill="#D55322" fill-opacity="0.1"/>
</svg>
